<svg width="249" height="243" viewBox="0 0 249 243" fill="none" xmlns="http://www.w3.org/2000/svg">
<path d="M69.6913 29.5871C58.2888 45.9565 37.9515 74.9335 24.5068 94.1499C10.977 113.366 0 129.532 0 130.142C0 130.752 9.19006 144.885 20.4224 161.661L40.8447 192.163H74.2863H107.728L137.34 150.375C163.719 113.061 166.783 108.384 165.676 106.961C161.932 101.572 134.277 65.0712 133.937 65.0712C133.426 65.0712 130.022 69.5448 91.5602 122.008C82.7105 134.006 75.2223 144.275 74.882 144.682C74.5416 145.088 71.7335 142.038 68.5851 137.87L62.7987 130.142L93.0068 84.9992L123.215 39.8561L107.473 19.9281C98.7931 8.9473 91.39 9.07481e-06 91.0497 9.07481e-06C90.7093 9.07481e-06 81.0938 13.3193 69.6913 29.5871ZM112.068 40.4661C111.983 41.1779 99.8993 59.7842 85.1782 81.8473L58.3739 122.008H36.7602C16.1677 122.008 15.1466 121.907 16.3379 120.178C17.6143 118.348 38.1217 89.0662 71.9037 40.7712L91.39 12.8109L101.856 26.0285C107.558 33.2473 112.238 39.7544 112.068 40.4661ZM145.424 93.5398C151.551 101.47 156.571 108.181 156.486 108.588C156.486 108.994 144.488 126.177 129.937 146.919L103.388 184.538L80.1577 184.843C67.4789 184.944 57.0124 184.843 57.0124 184.538C57.0124 183.521 132.915 79.3055 133.596 79.3055C133.937 79.3055 139.297 85.711 145.424 93.5398Z" fill="black"/>
<path d="M140.487 56.6321C141.168 57.6488 151.294 70.7647 162.952 85.7108C174.695 100.758 184.31 113.366 184.481 113.773C184.566 114.179 175.035 127.804 163.292 143.97C151.464 160.136 137.424 179.454 132.063 186.774L122.277 200.297H93.4309H64.6694L78.0291 221.649L91.4738 243H125.171H158.868L203.541 179.759C228.048 144.885 248.471 115.806 248.811 115.094C249.662 113.366 248.641 111.943 224.134 81.7455L202.265 54.9036H170.866C140.998 54.9036 139.381 55.0053 140.487 56.6321ZM233.069 123.737C232.388 124.753 221.156 140.615 208.051 159.119C194.947 177.624 177.333 202.432 168.909 214.328L153.677 235.883H130.361H107.131L109.088 232.934C110.194 231.308 128.659 205.686 150.188 175.997L189.331 122.008H211.795C232.899 122.008 234.175 122.11 233.069 123.737Z" fill="black"/>
</svg>
